<?xml version="1.0" standalone="no"?>
<!DOCTYPE svg PUBLIC "-//W3C//DTD SVG 20010904//EN"
 "http://www.w3.org/TR/2001/REC-SVG-20010904/DTD/svg10.dtd">
<svg version="1.0" xmlns="http://www.w3.org/2000/svg"
 width="874.000000pt" height="581.000000pt" viewBox="0 0 874.000000 581.000000"
 preserveAspectRatio="xMidYMid meet">

<g transform="translate(0.000000,581.000000) scale(0.100000,-0.100000)"
fill="#000000" stroke="none">
<path d="M7050 5795 l-35 -13 48 -7 c26 -4 57 -15 70 -25 21 -17 43 -21 194
-36 34 -3 68 -13 74 -20 9 -11 7 -14 -10 -14 -22 0 -30 -20 -8 -20 6 0 4 -5
-6 -11 -9 -5 -22 -7 -27 -4 -6 3 -10 2 -10 -4 0 -6 17 -13 38 -16 20 -4 44 -8
52 -10 8 -2 -110 -2 -263 0 -264 2 -338 -4 -245 -21 29 -5 36 -9 23 -12 -16
-4 -14 -7 15 -18 27 -10 30 -13 13 -13 -22 -1 -34 -21 -12 -21 5 0 7 -4 4 -10
-3 -5 -23 -11 -43 -11 -20 -1 -29 -3 -19 -6 9 -2 17 -11 17 -18 0 -7 8 -16 18
-18 10 -3 6 -5 -11 -6 -15 0 -43 -8 -63 -16 -20 -8 -47 -12 -65 -8 -29 6 -30
5 -18 -14 9 -15 27 -22 68 -27 69 -8 151 -27 151 -37 0 -8 -51 -19 -89 -19
-19 0 -22 -3 -12 -9 11 -7 6 -11 -20 -13 l-34 -4 33 -8 c17 -5 32 -12 32 -17
0 -5 5 -9 11 -9 5 0 7 4 4 10 -10 16 29 -2 42 -19 10 -13 6 -18 -20 -28 -26
-9 -28 -12 -10 -12 31 -1 38 -20 11 -30 -21 -9 -20 -10 12 -11 19 0 41 -4 48
-9 23 -14 -22 -21 -153 -23 -66 -1 -95 -3 -65 -5 30 -2 65 -9 77 -15 13 -6 26
-9 29 -5 4 3 18 0 33 -7 14 -8 49 -18 76 -22 l50 -8 -55 -12 c-30 -6 -45 -12
-34 -13 31 -1 86 -26 77 -34 -3 -4 -38 -7 -76 -7 -84 0 -84 -7 -2 -15 101 -9
135 -16 129 -26 -3 -5 -10 -7 -15 -3 -5 3 -15 1 -22 -4 -7 -5 -49 -9 -94 -8
-46 1 -88 -1 -94 -4 -13 -8 48 -19 111 -21 25 0 77 -6 115 -13 l70 -14 -75 -3
c-41 -2 -90 -4 -107 -4 -48 -2 -53 -15 -7 -16 21 -1 53 -4 69 -8 28 -7 29 -8
8 -15 -14 -4 -20 -12 -16 -22 4 -11 25 -14 86 -14 44 0 78 -3 74 -6 -3 -3 -67
-6 -141 -7 -75 -1 -136 -5 -136 -9 0 -4 17 -8 38 -9 35 -1 99 -16 77 -18 -31
-3 55 -31 99 -32 28 -1 76 -4 106 -8 l55 -7 -49 -8 c-46 -8 -122 -4 -211 10
l-40 7 22 -22 c12 -11 32 -21 43 -21 12 0 28 -6 36 -14 12 -12 8 -15 -29 -22
-23 -4 -46 -8 -51 -8 -5 -1 -11 -6 -13 -12 -3 -8 47 -11 169 -12 95 0 187 -5
203 -10 20 -6 -43 -9 -193 -11 -183 -1 -226 -4 -239 -16 -13 -13 -10 -15 25
-15 22 0 42 -5 44 -11 2 -6 35 -13 73 -17 38 -3 76 -11 83 -19 11 -11 2 -13
-55 -14 -55 -1 -62 -3 -38 -10 20 -5 4 -7 -50 -4 -52 3 -71 1 -55 -4 32 -11
123 -13 136 -3 5 4 34 5 64 2 l55 -5 -55 -9 c-30 -5 -93 -9 -140 -8 -47 0 -79
-2 -72 -5 17 -7 5 -23 -13 -17 -7 3 -22 1 -32 -5 -13 -8 7 -10 83 -11 109 0
164 -7 164 -21 0 -5 -12 -9 -27 -10 -16 -1 7 -8 51 -16 53 -10 74 -18 65 -24
-11 -7 -11 -9 -1 -9 7 0 10 -4 7 -10 -3 -5 0 -10 7 -11 7 -1 -7 -5 -31 -10
-33 -6 -59 -4 -99 7 -43 13 -77 15 -158 9 -57 -4 -102 -11 -99 -15 3 -4 51
-11 107 -15 111 -7 238 -27 278 -44 47 -20 -192 -3 -330 24 -19 3 -46 2 -60
-3 -24 -9 -23 -10 15 -16 22 -4 54 -11 70 -16 17 -5 71 -11 120 -14 50 -4 119
-9 155 -13 91 -9 45 -21 -87 -22 -119 -1 -141 -18 -25 -20 100 -1 160 -10 195
-28 16 -8 31 -13 33 -10 2 2 19 35 37 73 35 72 47 103 93 244 15 47 42 117 60
157 33 74 38 104 65 391 7 79 14 110 30 132 22 29 18 55 -8 46 -17 -7 -10 24
13 62 8 12 10 22 6 22 -12 0 -23 66 -15 86 3 8 12 13 20 10 10 -4 11 -1 5 12
-15 30 -8 76 17 112 l25 35 -24 -20 -23 -20 8 30 c5 17 9 47 9 67 0 21 2 35 5
32 14 -13 26 42 21 91 -3 30 -2 61 2 70 8 13 -26 15 -299 14 -222 -1 -318 -5
-343 -14z m98 -832 c-10 -2 -28 -2 -40 0 -13 2 -5 4 17 4 22 1 32 -1 23 -4z
m115 -100 c-7 -2 -19 -2 -25 0 -7 3 -2 5 12 5 14 0 19 -2 13 -5z m-74 -167
c-11 -9 -69 -14 -69 -6 0 6 17 10 37 10 20 0 34 -2 32 -4z m108 -322 c-3 -3
-12 -4 -19 -1 -8 3 -5 6 6 6 11 1 17 -2 13 -5z"/>
<path d="M7070 5741 c0 -5 10 -11 23 -15 35 -9 40 -7 27 9 -13 16 -50 21 -50
6z"/>
<path d="M7228 5643 c18 -2 45 -2 60 0 15 2 0 4 -33 4 -33 0 -45 -2 -27 -4z"/>
<path d="M5274 5553 c2 -9 8 -19 15 -21 10 -3 10 0 2 17 -14 25 -20 27 -17 4z"/>
<path d="M7706 5534 c-10 -38 0 -41 12 -5 6 17 7 31 3 31 -5 0 -12 -12 -15
-26z"/>
<path d="M6412 5464 c-12 -8 -31 -13 -42 -10 -11 3 -30 9 -41 12 -14 4 -19 2
-15 -5 4 -6 18 -11 32 -11 13 0 24 -5 24 -11 0 -6 11 -9 25 -7 14 2 25 7 24
12 0 5 5 12 12 17 8 4 11 10 8 13 -3 3 -15 -1 -27 -10z"/>
<path d="M6488 5453 c-10 -2 -18 -9 -18 -15 0 -6 10 -8 23 -4 12 3 26 6 30 6
5 0 5 5 2 10 -6 10 -9 11 -37 3z"/>
<path d="M6700 5410 c-11 -7 -2 -10 33 -10 30 0 46 4 42 10 -8 13 -55 13 -75
0z"/>
<path d="M6780 5320 c-12 -8 -9 -10 13 -10 15 0 27 5 27 10 0 13 -20 13 -40 0z"/>
<path d="M8570 5240 c0 -5 17 -10 38 -9 33 1 34 2 12 9 -36 11 -50 11 -50 0z"/>
<path d="M6393 5163 c26 -2 67 -2 90 0 23 2 2 3 -48 3 -49 0 -68 -1 -42 -3z"/>
<path d="M6563 5163 c20 -2 54 -2 75 0 20 2 3 4 -38 4 -41 0 -58 -2 -37 -4z"/>
<path d="M1813 5080 c13 -55 23 -181 42 -530 9 -163 15 -200 31 -200 8 0 13 4
9 9 -3 5 -1 12 3 15 5 3 8 20 7 38 -1 18 3 36 9 41 7 5 5 11 -6 18 -19 11 -23
45 -9 69 6 8 7 19 3 25 -11 17 -11 39 -1 51 7 8 6 14 -1 19 -12 7 -12 71 -1
100 5 11 4 30 0 43 -5 13 -11 67 -14 121 -5 112 -22 168 -55 190 -23 15 -23
15 -17 -9z"/>
<path d="M4030 5026 c0 -2 8 -10 18 -17 15 -13 16 -12 3 4 -13 16 -21 21 -21
13z"/>
<path d="M3620 4994 c-6 -14 -10 -37 -9 -52 1 -19 4 -15 10 16 4 23 11 47 14
52 3 6 4 10 0 10 -3 0 -10 -12 -15 -26z"/>
<path d="M3614 4735 c0 -77 2 -107 3 -67 2 40 2 103 0 140 -2 37 -3 4 -3 -73z"/>
<path d="M3621 4554 c0 -11 3 -14 6 -6 3 7 2 16 -1 19 -3 4 -6 -2 -5 -13z"/>
<path d="M4290 4429 c-162 -66 -303 -128 -313 -137 -10 -8 -15 -23 -12 -31 3
-8 3 -12 -2 -8 -4 5 -13 -7 -19 -25 l-11 -33 -114 -6 -114 -5 121 -2 c101 -2
123 -5 128 -18 9 -25 7 -34 -8 -34 -8 0 -18 -5 -21 -10 -4 -7 2 -9 19 -4 21 5
28 1 38 -21 9 -21 9 -31 0 -46 -16 -25 -15 -30 3 -23 15 6 21 -7 8 -19 -10
-11 -33 13 -33 34 0 11 -4 19 -10 19 -5 0 -10 -4 -10 -10 0 -6 -9 -6 -26 0
-32 13 -43 12 -24 0 13 -9 13 -11 0 -21 -12 -8 -10 -9 8 -4 15 4 22 2 22 -7 0
-10 2 -10 9 1 7 11 13 9 30 -8 18 -18 25 -19 42 -10 11 6 22 9 24 7 13 -13
103 -213 99 -220 -3 -4 -1 -8 3 -8 16 0 54 -91 48 -114 -4 -13 -3 -17 2 -8 11
15 8 19 155 -308 60 -135 110 -253 111 -262 1 -9 10 -21 22 -27 44 -23 123
-50 129 -44 3 3 19 -7 35 -23 17 -16 66 -51 109 -77 l78 -47 194 81 c271 112
280 117 295 152 16 39 15 43 -88 267 -47 102 -182 397 -300 655 -119 259 -227
482 -240 498 -18 19 -34 27 -58 27 -19 -1 -162 -53 -329 -121z m450 -101 c18
-40 52 -113 76 -163 48 -104 240 -532 291 -649 19 -45 27 -74 19 -67 -9 7 -25
10 -38 6 -16 -4 -19 -3 -10 3 8 5 12 20 10 33 l-3 24 -20 -22 c-11 -13 -31
-23 -45 -23 -15 0 -35 -6 -45 -14 -17 -12 -18 -16 -5 -31 13 -15 12 -19 -5
-31 -21 -16 -28 -54 -9 -54 14 0 54 -81 54 -110 0 -15 -13 -26 -46 -40 -59
-26 -65 -25 -94 9 -28 32 -37 76 -19 97 12 15 1 19 -16 6 -16 -11 -16 -44 0
-85 24 -60 20 -71 -34 -97 -27 -12 -57 -20 -65 -17 -21 8 -61 91 -53 110 3 9
23 25 44 37 36 20 27 21 -29 3 -36 -11 -17 15 22 31 22 9 40 20 40 26 0 6 -16
4 -37 -6 -21 -9 -44 -18 -51 -21 -17 -7 -41 15 -58 55 -22 52 -18 70 19 87 30
14 30 15 5 10 -21 -4 -28 -1 -28 10 0 9 8 19 17 22 10 4 28 18 40 31 23 25 22
36 -12 102 -17 32 -34 36 -84 19 -17 -6 -39 -8 -49 -4 -13 5 -7 12 31 32 61
30 56 40 -6 13 -25 -11 -52 -18 -60 -14 -17 6 -37 47 -37 76 0 49 76 88 108
56 8 -8 12 -8 12 -1 0 6 -7 16 -15 23 -12 10 -26 9 -70 -4 -67 -22 -93 -11
-41 16 45 23 43 33 -3 15 -31 -11 -34 -10 -55 16 l-22 27 -83 -51 c-45 -28
-84 -49 -86 -47 -11 11 -63 138 -57 139 4 1 12 2 17 3 25 4 55 18 55 26 0 5 9
12 20 15 11 3 20 11 20 16 0 5 -30 -2 -66 -16 l-65 -25 -26 58 c-14 31 -34 76
-43 99 l-19 41 182 75 c100 42 247 103 327 136 80 33 150 60 156 60 6 1 26
-32 44 -71z m-380 -573 c0 -8 -8 -15 -18 -15 -10 0 -23 -5 -29 -11 -7 -7 -20
-8 -30 -5 -15 7 -13 10 17 26 43 23 60 25 60 5z m57 -60 c33 -58 30 -73 -19
-95 -24 -11 -51 -20 -60 -20 -22 0 -47 38 -55 84 -5 34 -4 37 38 56 57 26 69
23 96 -25z m61 -101 c-2 -8 -7 -16 -13 -16 -5 -1 -34 -12 -63 -25 -55 -24 -82
-29 -82 -14 0 8 46 31 67 34 4 1 24 9 43 19 44 22 52 22 48 2z m29 -86 c12
-26 20 -54 17 -62 -7 -18 -85 -49 -110 -44 -21 3 -69 93 -59 108 12 19 80 50
105 47 19 -1 30 -13 47 -49z m601 -74 c-4 -20 -115 -67 -124 -52 -7 11 32 41
59 45 11 2 27 8 36 13 24 14 33 12 29 -6z m-583 -34 c6 -9 -9 -18 -62 -34 -36
-11 -28 13 10 29 39 17 44 18 52 5z m625 -40 c31 -61 27 -78 -27 -101 -25 -11
-54 -18 -62 -17 -20 4 -64 90 -56 110 8 20 63 47 97 47 22 1 32 -7 48 -39z
m-575 -4 c9 -13 18 -43 20 -66 3 -35 1 -41 -13 -38 -9 2 -16 11 -16 21 1 9 -2
14 -7 11 -13 -7 -11 -34 2 -34 5 0 7 -4 4 -10 -11 -17 -37 -11 -42 11 -4 15
-8 17 -14 8 -4 -8 -3 -19 4 -27 9 -11 6 -13 -13 -10 -14 2 -24 9 -22 16 1 6
-2 12 -6 12 -12 0 -32 46 -32 71 0 14 13 26 43 39 57 25 74 24 92 -4z m645
-91 c0 -6 -57 -35 -70 -35 -18 0 -11 17 13 28 23 11 57 16 57 7z m-82 -43 c2
-7 -3 -12 -12 -12 -9 0 -16 7 -16 16 0 17 22 14 28 -4z m-527 -6 c0 -12 -81
-37 -94 -29 -11 6 62 42 81 40 7 -1 13 -6 13 -11z m59 -69 c30 -57 24 -72 -42
-98 -55 -21 -67 -15 -92 50 -14 36 -15 46 -4 57 15 15 88 44 103 40 6 -1 21
-23 35 -49z m270 -1 c0 -11 -70 -46 -93 -46 -21 0 -1 22 36 39 52 24 57 25 57
7z m-255 -105 c6 -11 -26 -31 -49 -31 -23 0 -19 15 7 28 28 14 35 14 42 3z"/>
<path d="M4550 4184 c0 -6 -23 -18 -51 -28 -33 -12 -47 -22 -41 -28 7 -7 26
-4 56 7 52 20 63 32 47 48 -7 7 -11 7 -11 1z"/>
<path d="M4300 4155 c0 -8 4 -15 9 -15 5 0 14 7 21 15 10 13 9 15 -9 15 -12 0
-21 -6 -21 -15z"/>
<path d="M4585 4116 c-17 -12 -17 -13 6 -18 19 -3 25 0 25 14 0 22 -6 22 -31
4z"/>
<path d="M4455 4040 c-3 -5 -15 -10 -25 -10 -10 0 -22 -4 -25 -10 -4 -6 4 -9
17 -7 17 1 22 -2 20 -16 -2 -13 2 -18 14 -15 22 4 39 68 18 68 -7 0 -16 -4
-19 -10z"/>
<path d="M4394 3975 c-10 -8 -14 -15 -8 -15 5 0 19 7 30 15 10 8 14 15 8 15
-5 0 -19 -7 -30 -15z"/>
<path d="M4690 3860 c20 -13 33 -13 25 0 -3 6 -14 10 -23 10 -15 0 -15 -2 -2
-10z"/>
<path d="M4607 3833 c-4 -3 -6 -18 -6 -32 1 -21 2 -22 6 -6 3 11 10 26 15 33
11 12 -3 18 -15 5z"/>
<path d="M4646 3824 c-19 -18 -20 -33 -5 -54 8 -12 10 -10 5 10 -4 18 0 30 17
42 12 10 17 18 10 18 -6 0 -19 -7 -27 -16z"/>
<path d="M4701 3818 c0 -7 4 -22 9 -33 8 -18 9 -17 9 7 1 15 -3 30 -9 33 -5 3
-10 0 -9 -7z"/>
<path d="M4487 3763 c-13 -12 -7 -22 13 -20 25 2 36 27 11 27 -10 0 -21 -3
-24 -7z"/>
<path d="M4798 3493 c-27 -11 -38 -22 -38 -37 0 -33 42 -98 70 -108 13 -5 21
-6 17 -2 -4 4 11 15 33 25 22 10 43 25 46 33 3 9 -5 35 -18 58 -27 49 -51 56
-110 31z m95 -25 c23 -27 22 -44 -8 -73 -30 -31 -52 -31 -82 -3 -30 29 -29 62
4 87 30 24 58 20 86 -11z"/>
<path d="M4675 3490 c-16 -7 -17 -9 -3 -9 9 -1 20 4 23 9 7 11 7 11 -20 0z"/>
<path d="M4676 3451 c-4 -5 3 -7 14 -4 23 6 26 13 6 13 -8 0 -17 -4 -20 -9z"/>
<path d="M4785 3280 c-19 -8 -19 -9 3 -9 12 -1 22 4 22 9 0 6 -1 10 -2 9 -2 0
-12 -4 -23 -9z"/>
<path d="M4756 3213 c-14 -14 -5 -31 14 -26 11 3 20 9 20 13 0 10 -26 20 -34
13z"/>
<path d="M4430 3515 c0 -9 5 -15 11 -13 6 2 11 8 11 13 0 5 -5 11 -11 13 -6 2
-11 -4 -11 -13z"/>
<path d="M4583 3144 c-37 -16 -37 -17 -23 -45 13 -23 62 -26 80 -4 15 18 5 65
-13 64 -6 0 -27 -7 -44 -15z m47 -28 c0 -2 -6 -9 -14 -15 -11 -9 -16 -9 -22 0
-4 7 -3 9 4 5 6 -3 13 -2 17 4 6 10 15 14 15 6z"/>
<path d="M3611 4514 c0 -11 3 -14 6 -6 3 7 2 16 -1 19 -3 4 -6 -2 -5 -13z"/>
<path d="M8175 4460 c-3 -5 -1 -10 4 -10 6 0 11 5 11 10 0 6 -2 10 -4 10 -3 0
-8 -4 -11 -10z"/>
<path d="M5760 4400 c0 -5 5 -10 11 -10 5 0 7 5 4 10 -3 6 -8 10 -11 10 -2 0
-4 -4 -4 -10z"/>
<path d="M5790 4400 c0 -5 5 -10 11 -10 5 0 7 5 4 10 -3 6 -8 10 -11 10 -2 0
-4 -4 -4 -10z"/>
<path d="M5976 4395 c-3 -8 -1 -15 4 -15 13 0 22 18 11 24 -5 3 -11 -1 -15 -9z"/>
<path d="M5935 4390 c-3 -5 -1 -10 4 -10 6 0 11 5 11 10 0 6 -2 10 -4 10 -3 0
-8 -4 -11 -10z"/>
<path d="M7280 4136 c0 -9 40 -13 46 -5 3 5 -6 9 -20 9 -14 0 -26 -2 -26 -4z"/>
<path d="M7190 4101 c42 -6 43 -7 17 -14 -15 -4 -25 -12 -22 -17 3 -4 -3 -11
-12 -13 -10 -3 -4 -5 13 -6 17 0 45 -4 62 -7 27 -5 32 -2 46 24 9 17 16 33 16
35 0 2 -37 4 -82 4 -64 1 -73 -1 -38 -6z"/>
<path d="M3770 4040 c0 -11 2 -20 4 -20 2 0 6 9 9 20 3 11 1 20 -4 20 -5 0 -9
-9 -9 -20z"/>
<path d="M3812 4034 c10 -10 20 -15 24 -12 3 4 -5 12 -18 18 -22 12 -22 12 -6
-6z"/>
<path d="M3850 4040 c0 -5 5 -10 10 -10 6 0 10 5 10 10 0 6 -4 10 -10 10 -5 0
-10 -4 -10 -10z"/>
<path d="M1420 4014 c0 -24 -26 -50 -55 -56 -16 -3 -10 -9 27 -30 26 -14 46
-21 45 -15 -1 7 -5 14 -9 17 -4 3 -1 17 6 31 11 22 11 30 0 50 -13 23 -13 23
-14 3z"/>
<path d="M6005 4020 c-3 -5 -1 -10 4 -10 6 0 11 5 11 10 0 6 -2 10 -4 10 -3 0
-8 -4 -11 -10z"/>
<path d="M1335 3990 c-3 -5 -1 -10 4 -10 6 0 11 5 11 10 0 6 -2 10 -4 10 -3 0
-8 -4 -11 -10z"/>
<path d="M7160 3960 c18 -12 73 -14 66 -2 -2 4 -22 9 -43 10 -28 2 -34 0 -23
-8z"/>
<path d="M7068 3913 c6 -2 18 -2 25 0 6 3 1 5 -13 5 -14 0 -19 -2 -12 -5z"/>
<path d="M7170 3900 c20 -13 40 -13 40 0 0 6 -12 10 -27 10 -22 0 -25 -2 -13
-10z"/>
<path d="M7038 3838 c6 -6 18 -8 28 -6 14 3 12 5 -9 10 -19 3 -25 2 -19 -4z"/>
<path d="M7142 3838 c7 -20 48 -23 48 -4 0 11 -9 16 -26 16 -16 0 -24 -5 -22
-12z"/>
<path d="M7138 3763 c6 -2 18 -2 25 0 6 3 1 5 -13 5 -14 0 -19 -2 -12 -5z"/>
<path d="M7030 3695 c0 -9 83 -26 99 -19 13 5 12 8 -9 14 -28 9 -90 12 -90 5z"/>
<path d="M7078 3648 c30 -10 44 -28 22 -28 -5 0 -10 -7 -10 -15 0 -8 7 -15 16
-15 11 0 14 8 12 31 -3 28 -7 32 -38 34 l-35 3 33 -10z"/>
<path d="M1580 3640 c0 -5 5 -10 11 -10 5 0 7 5 4 10 -3 6 -8 10 -11 10 -2 0
-4 -4 -4 -10z"/>
<path d="M1660 3614 c0 -17 22 -14 28 4 2 7 -3 12 -12 12 -9 0 -16 -7 -16 -16z"/>
<path d="M1600 3594 c0 -13 18 -39 24 -34 2 3 -2 14 -10 24 -8 11 -14 16 -14
10z"/>
<path d="M7339 3571 c-25 -27 -59 -112 -59 -148 0 -10 -7 -36 -15 -58 -8 -22
-14 -65 -15 -95 0 -32 -7 -63 -15 -74 -19 -25 -19 -55 0 -80 18 -23 11 -62
-22 -141 -32 -74 -70 -125 -93 -125 -18 0 -43 24 -53 50 -4 10 -6 8 -6 -6 -1
-12 8 -33 19 -47 25 -32 25 -41 1 -34 -18 4 -18 3 -2 -32 9 -20 40 -80 69
-133 l53 -98 61 0 c63 0 71 -14 13 -23 -28 -4 -27 -4 7 -6 20 0 38 -6 40 -12
3 -8 17 -8 48 -2 40 8 52 17 107 87 35 43 63 74 63 69 0 -5 13 -8 29 -5 51 7
98 -38 56 -54 -14 -6 -13 -8 1 -19 15 -10 21 -9 41 11 13 13 29 24 35 24 6 0
-6 18 -25 39 -20 22 -43 54 -52 72 l-17 32 -15 -32 c-9 -17 -20 -31 -25 -31
-6 0 -5 -7 2 -15 10 -12 10 -15 -3 -15 -8 0 -17 6 -20 13 -3 8 -9 9 -19 2
-145 -100 -178 -113 -178 -70 0 59 56 129 124 155 14 5 26 15 26 21 0 6 14 29
31 51 31 39 31 39 33 171 2 109 -2 149 -22 232 -24 102 -60 175 -87 175 -11 0
-15 9 -13 33 2 31 -34 97 -53 97 -4 0 -11 11 -16 25 l-8 24 -26 -28z m86 -991
c3 -5 -3 -10 -15 -10 -12 0 -18 5 -15 10 3 6 10 10 15 10 5 0 12 -4 15 -10z
m-130 -10 c26 -7 24 -8 -20 -9 -27 0 -57 4 -65 9 -18 12 39 12 85 0z m93 -37
c-10 -2 -28 -2 -40 0 -13 2 -5 4 17 4 22 1 32 -1 23 -4z"/>
<path d="M6928 3573 c7 -3 16 -2 19 1 4 3 -2 6 -13 5 -11 0 -14 -3 -6 -6z"/>
<path d="M7080 3561 c0 -5 8 -12 18 -15 9 -3 -16 -4 -57 -2 -43 2 -68 0 -60
-5 8 -5 30 -9 49 -10 19 0 44 -5 55 -10 18 -8 18 -9 -5 -8 -44 2 -45 -1 -5
-21 22 -11 41 -20 42 -20 2 0 3 23 3 50 0 43 -3 50 -20 50 -11 0 -20 -4 -20
-9z"/>
<path d="M1620 3541 c0 -5 5 -13 10 -16 6 -3 10 -2 10 4 0 5 -4 13 -10 16 -5
3 -10 2 -10 -4z"/>
<path d="M7060 3420 c-23 -7 -23 -8 -3 -9 12 -1 28 -4 37 -7 11 -4 16 -1 16
10 0 17 -11 19 -50 6z"/>
<path d="M1692 3380 c0 -14 2 -19 5 -12 2 6 2 18 0 25 -3 6 -5 1 -5 -13z"/>
<path d="M6968 3393 c7 -3 16 -2 19 1 4 3 -2 6 -13 5 -11 0 -14 -3 -6 -6z"/>
<path d="M7022 3383 c14 -2 32 -11 38 -19 10 -11 8 -14 -11 -15 -13 0 -18 -3
-11 -6 6 -2 12 -11 12 -18 0 -13 35 -27 44 -17 3 3 6 23 6 44 l0 38 -52 -1
c-29 -1 -41 -4 -26 -6z"/>
<path d="M7038 3279 c17 -15 52 -20 52 -7 0 8 -12 13 -29 13 -17 0 -27 -3 -23
-6z"/>
<path d="M7863 3210 c-27 -11 -31 -32 -37 -210 -4 -129 -20 -223 -34 -204 -4
5 -16 16 -26 24 -18 14 -19 14 -9 -5 21 -39 95 -115 105 -108 7 3 8 1 4 -5 -4
-7 29 -56 81 -118 60 -72 89 -115 90 -135 2 -16 0 -29 -3 -29 -3 0 -35 28 -70
62 -65 62 -81 63 -43 1 l22 -35 -33 17 c-29 15 -32 15 -27 1 12 -31 -9 -15
-83 60 -64 65 -75 73 -78 55 -2 -13 -11 -21 -23 -21 -24 0 -24 -9 -1 -26 16
-13 16 -14 0 -8 -10 3 -18 1 -18 -5 0 -6 6 -12 13 -12 6 -1 -6 -5 -28 -8 -22
-4 -50 -2 -63 3 -20 8 -21 11 -7 26 21 23 19 47 -6 60 -16 9 -25 8 -40 -6 -26
-23 -24 -38 10 -76 19 -22 32 -50 36 -80 6 -41 11 -47 33 -50 36 -4 41 -28 5
-30 -19 -1 -14 -3 16 -7 62 -8 67 -31 6 -31 -39 0 -46 -3 -43 -17 3 -14 17
-19 73 -24 l70 -5 -67 -2 -68 -2 0 -38 c0 -50 22 -123 49 -160 27 -38 26 -40
-4 -34 -24 4 -25 2 -25 -39 0 -59 11 -119 21 -119 5 0 6 8 3 18 -5 16 -5 16 6
-1 9 -13 8 -21 -5 -33 -18 -18 -12 -49 14 -77 24 -25 79 -13 99 23 l16 28 32
-24 32 -25 123 15 c68 8 180 20 249 26 69 7 132 14 140 17 9 3 -5 14 -37 28
-63 28 -68 39 -15 30 33 -5 40 -3 50 17 l13 23 -5 -22 c-5 -30 11 -40 19 -12
4 11 16 30 28 42 l20 20 19 -23 c22 -27 23 -50 3 -76 -8 -10 -15 -21 -15 -24
0 -3 54 -4 121 -2 100 3 120 6 115 18 -3 9 6 20 24 29 22 11 30 23 30 42 0 25
-1 26 -57 20 l-58 -5 44 13 c61 20 71 31 71 81 0 33 -5 46 -22 58 l-22 16 22
23 c28 30 30 77 3 77 -26 0 -34 15 -27 46 4 16 13 24 27 24 18 0 20 4 14 28
-5 15 -11 45 -15 67 l-7 40 -2 -47 c-1 -35 -5 -48 -16 -48 -8 0 -15 -5 -15
-11 0 -6 -17 -37 -39 -69 -21 -31 -50 -81 -65 -111 -23 -50 -30 -56 -76 -71
-27 -9 -50 -12 -50 -8 0 5 16 43 35 85 19 42 36 88 37 103 2 17 22 46 51 75
27 27 47 50 45 52 -1 1 -30 16 -63 33 -33 17 -53 31 -45 31 8 1 38 -12 67 -28
52 -29 52 -29 82 -10 17 10 32 27 33 36 9 104 2 137 -32 148 -24 8 -52 58 -44
78 2 7 -1 19 -9 25 -8 7 -12 23 -10 36 11 56 -90 102 -132 60 -9 -9 -25 -14
-35 -11 -14 3 -26 -3 -40 -21 -11 -15 -23 -31 -27 -37 -5 -5 -9 -18 -10 -29 0
-10 -9 -50 -19 -89 -18 -69 -32 -87 -80 -101 -18 -5 -23 -2 -27 21 -5 26 -4
27 10 8 15 -19 15 -18 8 10 -5 17 -9 39 -10 50 -3 32 -34 126 -46 141 -7 8
-21 11 -34 8 -35 -9 -79 36 -104 106 -12 33 -27 60 -33 60 -7 0 -4 6 7 13 17
13 17 14 -3 19 -12 3 -23 1 -26 -6 -2 -6 -5 -3 -5 7 -1 16 -21 25 -21 9 0 -7
33 -122 56 -194 5 -16 0 -17 -39 -12 -33 5 -51 2 -72 -12 -27 -18 -27 -18 -22
1 13 45 12 505 0 504 -5 0 -18 -4 -30 -9z m705 -452 c15 -13 12 -70 -8 -140
-10 -33 -13 -36 -33 -29 -15 6 -34 4 -56 -5 -19 -8 -36 -12 -39 -9 -9 9 30
170 46 188 18 20 62 17 90 -5z m-524 -73 c4 -12 -5 -15 -49 -15 -85 0 -84 28
1 29 29 1 44 -4 48 -14z m-457 -122 c2 -6 -5 -13 -17 -16 -12 -3 -20 0 -20 7
0 26 29 33 37 9z m1006 -19 c81 -41 87 -47 87 -90 0 -58 -20 -60 -112 -12 -77
40 -83 46 -86 76 -7 73 9 77 111 26z m-460 -19 c9 -8 18 -28 22 -45 4 -16 13
-30 20 -30 10 0 12 -7 5 -31 -5 -17 -5 -40 0 -54 5 -12 7 -26 4 -29 -2 -3 -1
-4 2 -1 4 2 19 -4 33 -14 43 -30 109 -61 131 -61 38 0 20 -15 -42 -36 -35 -12
-72 -25 -83 -28 l-20 -8 20 17 c20 16 20 16 1 31 -11 8 -26 14 -33 14 -8 0
-27 7 -42 14 -23 12 -31 13 -47 2 -25 -17 -66 -27 -58 -15 3 6 -6 7 -23 4 -15
-4 -39 -9 -53 -11 -13 -3 -45 -21 -71 -40 -26 -19 -49 -34 -53 -34 -3 0 -40
-16 -83 -36 -74 -35 -77 -35 -90 -18 -13 17 -11 74 4 97 7 11 72 37 107 41 17
3 48 11 68 20 44 19 51 20 43 6 -8 -13 -2 -13 30 2 14 6 25 16 25 23 0 20 43
53 85 64 44 12 109 66 100 82 -4 5 -23 8 -42 7 -23 -2 -38 2 -41 11 -3 10 5
12 36 9 l40 -3 -13 32 c-15 35 -6 43 18 18z m-326 -68 c29 -27 30 -31 16 -45
-14 -14 -13 -17 3 -29 30 -22 12 -17 -83 22 -43 18 -56 35 -28 35 18 0 38 46
28 63 -8 15 21 -7 64 -46z m660 -194 c-67 -131 -70 -141 -53 -184 12 -30 13
-40 4 -37 -17 6 -84 176 -73 185 4 5 10 2 12 -4 8 -21 22 -15 38 17 10 18 27
33 48 39 17 5 33 10 35 10 1 1 -4 -11 -11 -26z m-136 -103 c12 -7 19 -21 19
-40 0 -23 -5 -31 -25 -36 -29 -7 -66 19 -59 42 2 8 6 21 9 29 5 17 28 19 56 5z
m-171 -81 c0 -6 -4 -7 -10 -4 -5 3 -10 11 -10 16 0 6 5 7 10 4 6 -3 10 -11 10
-16z m185 -32 c22 -16 15 -61 -11 -71 -44 -17 -86 33 -56 67 18 20 42 22 67 4z
m381 -35 c-12 -11 -18 7 -10 30 l8 23 4 -23 c2 -13 1 -26 -2 -30z m-970 -7
c-33 -37 -40 -36 -50 8 -6 26 -5 27 37 27 l44 0 -31 -35z m284 -45 c77 -67 84
-87 45 -125 -32 -33 -51 -31 -85 5 -15 17 -33 30 -39 30 -5 0 -14 6 -18 14 -4
7 -18 18 -30 25 -44 23 -18 111 32 111 15 0 51 -23 95 -60z m280 -21 c26 -15
-32 -10 -65 6 l-30 15 40 -6 c22 -3 47 -10 55 -15z m-514 -71 c-9 -12 -16 -20
-16 -16 0 3 -3 13 -6 21 -3 10 1 17 13 19 26 6 27 2 9 -24z m804 22 c0 -5 -4
-10 -10 -10 -5 0 -10 5 -10 10 0 6 5 10 10 10 6 0 10 -4 10 -10z m-670 -15 c6
-8 9 -23 5 -35 -5 -17 -13 -20 -38 -18 -32 3 -45 23 -33 54 7 18 50 18 66 -1z
m-238 -27 c-7 -7 -12 -8 -12 -2 0 14 12 26 19 19 2 -3 -1 -11 -7 -17z m458 8
c0 -2 -9 -6 -20 -9 -11 -3 -20 -1 -20 4 0 5 9 9 20 9 11 0 20 -2 20 -4z m-419
-35 c6 11 11 11 20 2 9 -9 9 -16 -1 -28 -20 -24 -48 -19 -45 8 3 30 6 34 12
18 5 -11 7 -11 14 0z"/>
<path d="M7925 2250 c-3 -5 -2 -10 4 -10 5 0 13 5 16 10 3 6 2 10 -4 10 -5 0
-13 -4 -16 -10z"/>
<path d="M8436 2253 c-6 -14 -5 -15 5 -6 7 7 10 15 7 18 -3 3 -9 -2 -12 -12z"/>
<path d="M8310 2126 c0 -9 5 -16 10 -16 6 0 10 4 10 9 0 6 -4 13 -10 16 -5 3
-10 -1 -10 -9z"/>
<path d="M8310 2010 c0 -5 5 -10 10 -10 6 0 10 5 10 10 0 6 -4 10 -10 10 -5 0
-10 -4 -10 -10z"/>
<path d="M8236 3207 c3 -10 9 -15 12 -12 3 3 0 11 -7 18 -10 9 -11 8 -5 -6z"/>
<path d="M7056 3191 c-3 -5 1 -11 9 -15 9 -3 15 0 15 9 0 16 -16 20 -24 6z"/>
<path d="M7066 3148 c5 -8 -11 -10 -62 -5 l-69 5 50 -14 c28 -7 62 -18 78 -23
20 -7 27 -6 27 4 0 21 -11 45 -22 45 -5 0 -6 -5 -2 -12z"/>
<path d="M7020 3086 c0 -5 65 -36 76 -36 2 0 4 7 4 15 0 9 -9 15 -24 15 -13 0
-31 3 -40 6 -9 3 -16 3 -16 0z"/>
<path d="M8114 2993 c3 -40 9 -81 15 -90 7 -13 8 2 4 52 -8 98 -25 130 -19 38z"/>
<path d="M1108 3043 c7 -3 16 -2 19 1 4 3 -2 6 -13 5 -11 0 -14 -3 -6 -6z"/>
<path d="M8028 2983 c7 -3 16 -2 19 1 4 3 -2 6 -13 5 -11 0 -14 -3 -6 -6z"/>
<path d="M8070 2970 c0 -5 5 -10 11 -10 5 0 7 5 4 10 -3 6 -8 10 -11 10 -2 0
-4 -4 -4 -10z"/>
<path d="M7052 2961 c-11 -7 -11 -9 2 -14 10 -4 16 -1 16 8 0 17 -1 17 -18 6z"/>
<path d="M8060 2935 c-8 -9 -8 -15 -2 -15 12 0 26 19 19 26 -2 2 -10 -2 -17
-11z"/>
<path d="M1580 2792 c-89 -37 -180 -48 -243 -28 -28 8 -28 8 -15 -13 7 -12 23
-24 35 -27 13 -4 20 -11 16 -20 -3 -10 2 -14 19 -14 13 0 29 -5 34 -10 7 -7
30 -4 70 10 32 11 67 20 77 20 10 0 15 5 12 10 -3 6 3 10 14 10 37 0 71 22 71
46 0 12 3 29 6 38 8 21 4 20 -96 -22z"/>
<path d="M1110 2738 c4 -18 11 -54 15 -80 6 -45 5 -48 -17 -50 -13 0 -27 -2
-33 -3 -5 -2 -16 -3 -23 -4 -10 -1 -12 -16 -8 -63 2 -35 5 -121 5 -192 l1
-128 28 5 27 6 -1 -98 c-1 -54 -5 -104 -9 -111 -5 -9 -4 -11 3 -6 7 4 12 3 12
-3 0 -5 -6 -12 -12 -14 -10 -4 -10 -6 0 -6 6 -1 12 -13 12 -27 0 -14 -4 -23
-8 -20 -11 7 -8 -68 7 -164 13 -83 13 -193 0 -227 -6 -16 -4 -23 9 -26 13 -4
13 -5 -4 -6 -31 -2 -44 -21 -44 -68 l0 -43 96 0 96 0 -4 30 c-3 17 -1 33 3 36
5 2 6 11 2 19 -4 11 3 15 23 16 29 1 29 1 4 8 -23 6 -25 12 -27 66 -1 33 -2
62 -3 65 -1 3 -3 19 -4 35 -1 17 -9 55 -18 85 -11 36 -16 85 -15 143 2 49 -1
91 -6 94 -4 2 -3 11 3 18 6 8 7 16 2 19 -11 7 -10 65 2 84 4 6 3 12 -1 12 -5
0 -8 53 -8 118 0 64 -3 122 -8 129 -4 6 -3 14 3 18 6 3 7 12 3 18 -4 6 -8 23
-8 37 -4 55 -32 186 -50 232 -4 9 -13 19 -21 22 -8 3 -14 14 -14 25 0 11 -4
22 -9 26 -6 3 -6 -8 -1 -27z"/>
<path d="M7685 2590 c-3 -5 -1 -10 4 -10 6 0 11 5 11 10 0 6 -2 10 -4 10 -3 0
-8 -4 -11 -10z"/>
<path d="M4777 2557 c-9 -7 -9 -10 1 -14 21 -8 13 -20 -20 -28 -27 -5 -29 -8
-15 -14 17 -6 16 -9 -7 -32 l-26 -26 148 -42 c140 -41 188 -63 176 -82 -3 -5
1 -9 9 -9 8 0 21 -8 28 -17 12 -15 12 -16 -6 -9 -37 16 -65 18 -65 7 0 -6 11
-11 25 -11 14 0 33 -4 43 -9 31 -16 123 -43 128 -39 4 4 -44 41 -95 73 -52 33
-70 48 -66 55 3 4 -2 13 -10 20 -7 6 -11 18 -8 26 3 10 -2 14 -18 14 -18 0
-20 3 -11 12 17 17 15 25 -8 31 -20 5 -29 37 -10 37 27 0 5 21 -32 31 -24 6
-47 15 -53 19 -15 12 -94 17 -108 7z m29 -56 c-4 -6 -14 -7 -23 -4 -15 6 -14
7 3 13 22 9 29 6 20 -9z"/>
<path d="M7235 2488 c6 -15 140 -24 149 -10 3 5 -26 10 -66 11 -40 1 -75 4
-80 7 -4 3 -6 -1 -3 -8z"/>
<path d="M4566 2446 c-22 -18 -26 -29 -26 -71 0 -27 0 -62 0 -76 0 -22 12 -35
65 -70 36 -23 65 -46 65 -51 0 -4 12 -8 26 -8 16 0 28 -7 30 -18 3 -9 23 -28
45 -40 54 -31 117 -89 135 -124 15 -29 15 -29 32 -9 12 15 34 23 77 27 33 4
69 14 80 23 43 35 67 42 109 36 102 -17 7 10 -252 73 -155 38 -285 72 -289 76
-4 4 -1 5 7 2 28 -10 70 41 70 84 -1 38 -62 134 -88 138 -12 2 -20 7 -17 12
12 19 -45 16 -69 -4z m83 -92 c12 -20 20 -38 18 -40 -2 -2 -14 14 -26 36 -28
50 -21 53 8 4z"/>
<path d="M7300 2451 c0 -11 56 -9 66 2 4 4 -9 7 -29 7 -20 0 -37 -4 -37 -9z"/>
<path d="M2402 2431 c-22 -6 -22 -6 -2 -19 17 -10 21 -10 26 3 8 20 4 23 -24
16z"/>
<path d="M2617 2421 c3 -12 9 -21 14 -21 14 0 11 16 -5 29 -12 10 -13 8 -9 -8z"/>
<path d="M2693 2423 c-10 -16 -13 -16 -22 -3 -9 13 -11 13 -11 -2 0 -10 7 -18
15 -18 8 0 15 -5 15 -11 0 -8 5 -8 15 1 8 7 22 10 30 6 9 -3 13 -2 10 4 -3 6
-12 10 -20 10 -7 0 -15 7 -17 15 -2 13 -5 13 -15 -2z"/>
<path d="M7293 2413 c9 -2 23 -2 30 0 6 3 -1 5 -18 5 -16 0 -22 -2 -12 -5z"/>
<path d="M4800 2370 c0 -5 5 -10 11 -10 5 0 7 5 4 10 -3 6 -8 10 -11 10 -2 0
-4 -4 -4 -10z"/>
<path d="M4899 2331 c11 -7 11 -9 0 -14 -10 -4 -9 -6 3 -6 23 -1 32 15 12 23
-23 9 -31 7 -15 -3z"/>
<path d="M4960 2336 c0 -2 9 -6 20 -9 11 -3 18 -1 14 4 -5 9 -34 13 -34 5z"/>
<path d="M1064 2168 c3 -24 5 -103 5 -177 1 -74 3 -132 6 -130 2 3 4 65 4 139
0 74 1 152 1 173 0 21 -4 37 -11 37 -7 0 -9 -14 -5 -42z"/>
<path d="M1645 2170 c3 -5 1 -10 -5 -10 -7 0 -9 -8 -5 -19 8 -25 -9 -35 -36
-21 -13 7 -35 9 -58 5 l-36 -8 45 -12 c25 -7 59 -20 77 -29 49 -26 106 -34
463 -64 l75 -7 -60 -6 -60 -6 70 -1 c39 0 77 -2 85 -5 8 -3 80 -11 160 -17 80
-6 192 -18 249 -26 58 -8 124 -14 148 -14 24 0 43 -3 43 -7 0 -5 -28 -7 -62
-6 -71 2 113 -16 432 -43 118 -9 220 -21 226 -25 5 -5 19 -6 31 -3 11 3 24 1
27 -5 4 -6 34 -11 66 -11 32 0 60 -5 62 -10 2 -7 16 -6 38 4 32 14 33 15 10
17 -17 1 -20 3 -7 6 23 6 22 9 -10 40 -28 25 -28 25 -31 4 -2 -15 -9 -20 -20
-17 -9 2 -44 7 -77 11 -117 12 -117 12 -113 56 2 22 -1 39 -7 39 -5 0 -39 5
-75 10 -41 6 -68 6 -76 -1 -8 -6 -25 -5 -50 5 -54 20 -116 29 -123 18 -4 -6
-29 -6 -66 -1 -33 4 -82 11 -110 14 -27 4 -54 10 -60 15 -13 10 -136 26 -312
41 -79 6 -143 15 -143 19 0 4 -30 8 -67 9 -38 1 -195 17 -351 36 -327 40 -295
38 -287 25z"/>
<path d="M4340 2116 c0 -9 4 -16 10 -16 5 0 7 -6 4 -14 -4 -10 9 -24 36 -41
31 -20 40 -31 38 -48 -2 -12 4 -29 12 -38 43 -46 52 -62 39 -69 -15 -10 -26
-6 -117 42 -40 22 -76 36 -81 33 -5 -3 -12 -1 -16 5 -3 5 -17 7 -31 4 -13 -3
-30 -2 -37 4 -6 5 -20 9 -30 9 -35 -1 14 -37 72 -53 104 -28 186 -55 286 -95
55 -21 132 -45 170 -52 39 -8 80 -19 92 -25 12 -7 33 -12 48 -12 25 0 85 25
85 36 0 2 -9 0 -20 -6 -14 -8 -20 -8 -20 0 0 6 -4 9 -8 6 -5 -3 -18 2 -28 12
-11 9 -26 18 -34 20 -8 2 -17 7 -20 12 -7 12 -60 31 -69 25 -5 -2 -13 7 -19
20 -10 22 -14 24 -31 13 -16 -10 -18 -15 -8 -28 7 -8 -16 9 -50 39 -65 55 -73
64 -48 55 24 -10 17 10 -14 40 -16 16 -49 47 -73 70 -24 24 -54 45 -68 49 -14
3 -35 9 -47 12 -17 6 -23 3 -23 -9z m357 -271 c0 -8 -4 -12 -9 -9 -5 3 -6 10
-3 15 9 13 12 11 12 -6z"/>
<path d="M2411 2106 c3 -4 195 -11 425 -16 230 -5 517 -15 637 -21 204 -11
241 -10 223 8 -4 4 -177 11 -384 14 -207 4 -496 10 -642 14 -146 3 -262 4
-259 1z"/>
<path d="M7374 2055 c0 -19 5 -35 10 -35 6 0 5 -5 -2 -12 -14 -14 -16 -62 -2
-53 6 3 10 -4 10 -17 0 -18 -2 -20 -10 -8 -13 20 -12 7 2 -27 6 -15 10 -34 9
-40 -1 -7 5 -13 13 -13 11 0 14 8 10 33 -11 86 -24 189 -24 198 0 5 -4 9 -8 9
-4 0 -8 -16 -8 -35z"/>
<path d="M7410 2080 c0 -5 3 -10 8 -10 4 0 8 -39 9 -87 2 -49 7 -89 13 -91 6
-2 8 -7 6 -11 -3 -4 0 -13 5 -21 10 -15 4 124 -7 163 -4 11 0 17 10 17 12 0
14 -7 9 -31 -5 -27 -3 -30 13 -27 14 3 19 12 18 36 -2 26 2 32 20 33 15 1 11
4 -12 10 -23 7 -38 7 -47 -1 -9 -8 -14 -5 -18 10 -5 20 -27 28 -27 10z"/>
<path d="M7514 2024 c3 -9 6 -21 6 -26 0 -19 14 1 15 22 1 11 -5 20 -13 20 -9
0 -12 -6 -8 -16z"/>
<path d="M1978 2003 c12 -2 30 -2 40 0 9 3 -1 5 -23 4 -22 0 -30 -2 -17 -4z"/>
<path d="M7153 1983 c9 -2 25 -2 35 0 9 3 1 5 -18 5 -19 0 -27 -2 -17 -5z"/>
<path d="M7292 1960 c0 -14 2 -19 5 -12 2 6 2 18 0 25 -3 6 -5 1 -5 -13z"/>
<path d="M7491 1936 c-1 -26 2 -37 9 -30 6 6 6 21 1 39 -9 30 -9 30 -10 -9z"/>
<path d="M4592 1922 c8 -9 14 -10 16 -3 2 7 12 5 28 -5 13 -9 24 -12 24 -6 0
15 -19 25 -52 27 -23 1 -26 -1 -16 -13z"/>
<path d="M7290 1910 c0 -5 5 -10 11 -10 5 0 7 5 4 10 -3 6 -8 10 -11 10 -2 0
-4 -4 -4 -10z"/>
<path d="M7190 1885 c47 -9 93 -20 103 -25 14 -8 17 -6 17 10 0 16 -7 20 -32
20 -18 0 -64 2 -103 5 l-70 5 85 -15z"/>
<path d="M8390 1855 c7 -9 15 -13 17 -11 7 7 -7 26 -19 26 -6 0 -6 -6 2 -15z"/>
<path d="M1077 1836 c-7 -18 3 -56 14 -56 12 0 11 27 -1 35 -5 3 -7 12 -3 20
3 8 3 15 0 15 -3 0 -7 -6 -10 -14z"/>
<path d="M3338 1843 c6 -2 18 -2 25 0 6 3 1 5 -13 5 -14 0 -19 -2 -12 -5z"/>
<path d="M7218 1843 c6 -2 18 -2 25 0 6 3 1 5 -13 5 -14 0 -19 -2 -12 -5z"/>
<path d="M7409 1838 c-6 -22 -6 -44 1 -62 7 -17 9 -13 9 22 1 23 -1 42 -4 42
-3 0 -5 -1 -6 -2z"/>
<path d="M7451 1824 c0 -11 3 -14 6 -6 3 7 2 16 -1 19 -3 4 -6 -2 -5 -13z"/>
<path d="M7451 1784 c0 -11 3 -14 6 -6 3 7 2 16 -1 19 -3 4 -6 -2 -5 -13z"/>
<path d="M7065 1770 c11 -5 34 -8 50 -8 l30 0 -30 8 c-16 4 -39 8 -50 8 l-20
1 20 -9z"/>
<path d="M1080 1647 l0 -116 -132 4 -133 4 134 -10 c73 -5 135 -8 137 -6 7 6
6 229 0 235 -3 3 -6 -47 -6 -111z"/>
<path d="M7210 1750 c81 -12 122 -12 115 0 -3 6 -43 9 -88 9 -81 -2 -82 -2
-27 -9z"/>
<path d="M4870 1720 c-348 -37 -415 -45 -387 -48 41 -5 22 -22 -26 -23 -40 0
-41 -1 -17 -12 14 -6 27 -14 30 -18 3 -3 12 -9 20 -12 8 -3 -7 -6 -35 -7 -62
-2 -52 -6 55 -20 75 -10 86 -14 86 -32 0 -18 -5 -19 -71 -14 l-70 5 70 -14
c39 -8 86 -15 105 -16 l35 -2 -35 -7 c-33 -6 -34 -7 -10 -14 27 -7 91 -13 179
-15 30 0 52 -4 49 -7 -4 -3 -75 -6 -160 -6 l-153 0 70 -13 c52 -9 62 -13 40
-16 -16 -2 103 -6 265 -9 162 -3 296 -4 298 -4 4 2 -157 325 -161 323 -1 -1
-81 -9 -177 -19z m230 -94 c0 -2 3 -12 7 -21 5 -15 1 -16 -28 -10 -19 4 -43 9
-54 10 -37 4 -40 7 -15 15 27 9 90 13 90 6z m-425 -76 c18 -8 17 -9 -7 -9 -15
-1 -30 4 -33 9 -7 12 12 12 40 0z m333 -17 c-10 -2 -26 -2 -35 0 -10 3 -2 5
17 5 19 0 27 -2 18 -5z m142 -13 c0 -5 -9 -10 -19 -10 -11 0 -23 5 -26 10 -4
6 5 10 19 10 14 0 26 -4 26 -10z m-168 -7 c54 -3 95 -10 92 -14 -3 -5 18 -9
45 -9 30 0 51 -4 51 -11 0 -7 -11 -8 -32 -3 -18 4 -71 7 -118 7 -51 -1 -75 2
-60 7 20 6 15 8 -30 14 -30 3 -73 8 -95 9 l-40 4 45 1 c25 1 89 -1 142 -5z
m-94 -20 c-10 -2 -26 -2 -35 0 -10 3 -2 5 17 5 19 0 27 -2 18 -5z m69 -39 c-7
-8 -87 -7 -95 0 -3 3 19 6 48 6 29 0 51 -3 47 -6z m229 -16 c5 -8 -147 1 -156
9 -3 3 30 3 73 2 43 -2 81 -7 83 -11z"/>
<path d="M7278 1683 c12 -2 30 -2 40 0 9 3 -1 5 -23 4 -22 0 -30 -2 -17 -4z"/>
<path d="M4383 1663 c9 -2 23 -2 30 0 6 3 -1 5 -18 5 -16 0 -22 -2 -12 -5z"/>
<path d="M4145 1645 c-156 -19 -181 -24 -95 -19 119 6 324 31 260 32 -30 0
-104 -6 -165 -13z"/>
<path d="M3893 1613 c15 -2 37 -2 50 0 12 2 0 4 -28 4 -27 0 -38 -2 -22 -4z"/>
<path d="M3775 1600 c-4 -7 8 -8 37 -4 57 9 61 14 10 14 -22 0 -44 -5 -47 -10z"/>
<path d="M4348 1603 c6 -2 18 -2 25 0 6 3 1 5 -13 5 -14 0 -19 -2 -12 -5z"/>
<path d="M8063 1593 c15 -2 37 -2 50 0 12 2 0 4 -28 4 -27 0 -38 -2 -22 -4z"/>
<path d="M7948 1583 c7 -3 16 -2 19 1 4 3 -2 6 -13 5 -11 0 -14 -3 -6 -6z"/>
<path d="M150 1570 c57 -8 197 -13 189 -6 -2 2 -58 6 -124 9 -81 4 -102 3 -65
-3z"/>
<path d="M7878 1573 c6 -2 18 -2 25 0 6 3 1 5 -13 5 -14 0 -19 -2 -12 -5z"/>
<path d="M438 1553 c12 -2 30 -2 40 0 9 3 -1 5 -23 4 -22 0 -30 -2 -17 -4z"/>
<path d="M678 1543 c23 -2 59 -2 80 0 20 2 1 4 -43 4 -44 0 -61 -2 -37 -4z"/>
<path d="M7903 1533 c9 -2 23 -2 30 0 6 3 -1 5 -18 5 -16 0 -22 -2 -12 -5z"/>
<path d="M3753 1503 c15 -2 37 -2 50 0 12 2 0 4 -28 4 -27 0 -38 -2 -22 -4z"/>
<path d="M1678 1493 c7 -3 16 -2 19 1 4 3 -2 6 -13 5 -11 0 -14 -3 -6 -6z"/>
<path d="M1802 1490 c53 -4 175 -10 270 -13 126 -4 146 -3 73 3 -55 4 -176 10
-270 13 -125 4 -144 3 -73 -3z"/>
<path d="M3928 1493 c7 -3 16 -2 19 1 4 3 -2 6 -13 5 -11 0 -14 -3 -6 -6z"/>
<path d="M4083 1483 c20 -2 54 -2 75 0 20 2 3 4 -38 4 -41 0 -58 -2 -37 -4z"/>
<path d="M4340 1460 c80 -10 146 -17 148 -15 10 9 -196 36 -258 34 -19 -1 30
-9 110 -19z"/>
<path d="M2323 1463 c15 -2 39 -2 55 0 15 2 2 4 -28 4 -30 0 -43 -2 -27 -4z"/>
<path d="M2640 1450 c25 -4 144 -10 265 -13 166 -4 189 -4 95 3 -182 12 -412
18 -360 10z"/>
<path d="M3180 1430 c-10 -6 22 -10 89 -10 57 0 102 2 100 4 -10 9 -176 14
-189 6z"/>
<path d="M7760 1201 c0 -19 22 -23 38 -7 15 15 14 16 -11 16 -15 0 -27 -4 -27
-9z"/>
<path d="M950 1011 c-21 -6 -10 -13 80 -53 58 -25 132 -53 165 -63 33 -10 107
-34 165 -55 58 -21 125 -41 150 -45 95 -15 542 -125 584 -143 24 -11 86 -30
138 -41 72 -17 101 -28 117 -47 11 -13 30 -24 41 -24 11 0 20 -6 20 -13 0 -9
9 -12 28 -9 15 2 147 -8 292 -22 146 -14 362 -30 480 -35 254 -13 644 -16 659
-6 7 3 114 4 239 1 125 -4 382 -3 570 1 189 5 346 5 349 1 11 -20 533 0 728
27 55 7 141 19 190 25 376 48 1251 225 1584 320 172 50 511 162 511 170 0 4
-75 10 -167 13 -222 9 -6891 7 -6923 -2z m3815 -480 c-27 -11 -504 -11 -511 0
-3 5 113 9 263 8 147 0 259 -4 248 -8z"/>
<path d="M1366 641 c-9 -14 5 -41 21 -41 8 0 17 -9 20 -21 4 -12 17 -22 34
-26 16 -3 29 -12 29 -19 0 -8 5 -14 11 -14 5 0 7 -4 4 -10 -3 -5 -1 -10 5 -10
6 0 9 -4 6 -9 -8 -12 22 -36 69 -56 35 -15 38 -18 20 -25 -19 -8 -19 -9 1 -9
12 -1 24 -8 28 -16 3 -8 12 -15 20 -15 8 0 27 -5 43 -11 l28 -12 -40 -13 c-23
-7 -32 -13 -20 -14 11 0 45 -9 75 -20 48 -17 51 -20 25 -21 l-30 -1 35 -9 c53
-14 140 -26 140 -20 -1 3 -31 29 -68 58 -37 28 -150 117 -252 197 -102 80
-188 146 -192 146 -4 0 -9 -4 -12 -9z m471 -367 c-3 -3 -12 -4 -19 -1 -8 3 -5
6 6 6 11 1 17 -2 13 -5z"/>
<path d="M2638 453 c7 -3 16 -2 19 1 4 3 -2 6 -13 5 -11 0 -14 -3 -6 -6z"/>
<path d="M2360 421 c13 -9 13 -11 -2 -11 -19 0 -62 -65 -53 -80 4 -6 1 -9 -6
-8 -6 2 -14 -3 -16 -9 -3 -8 4 -13 19 -13 36 0 68 -11 62 -21 -9 -15 8 -10 20
6 10 13 30 14 141 8 109 -7 312 -1 235 6 -14 1 -38 4 -55 7 -16 2 -93 6 -170
7 -77 2 -147 6 -155 9 -8 4 -22 9 -30 11 -8 3 32 6 90 8 l105 2 -110 12 c-60
7 -102 13 -92 14 10 0 16 5 12 10 -3 6 14 12 37 15 73 9 248 12 235 4 -7 -4 8
-8 33 -8 36 1 41 3 27 11 -9 5 -22 7 -29 3 -7 -5 -8 -3 -4 5 6 10 -17 12 -100
9 -60 -2 -131 1 -159 5 -35 5 -46 5 -35 -2z"/>
<path d="M2488 373 c7 -3 16 -2 19 1 4 3 -2 6 -13 5 -11 0 -14 -3 -6 -6z"/>
<path d="M2758 373 c7 -3 16 -2 19 1 4 3 -2 6 -13 5 -11 0 -14 -3 -6 -6z"/>
<path d="M2595 360 c33 -4 67 -3 75 1 9 5 -17 8 -60 7 l-75 -1 60 -7z"/>
<path d="M2568 333 c6 -2 18 -2 25 0 6 3 1 5 -13 5 -14 0 -19 -2 -12 -5z"/>
<path d="M2690 330 c0 -5 11 -10 24 -10 14 0 28 5 31 10 4 6 -7 10 -24 10 -17
0 -31 -4 -31 -10z"/>
<path d="M2793 333 c9 -2 23 -2 30 0 6 3 -1 5 -18 5 -16 0 -22 -2 -12 -5z"/>
<path d="M2255 271 l-14 -27 82 -3 c45 -1 125 -7 177 -12 52 -6 136 -12 185
-14 50 -1 146 -5 215 -8 98 -5 117 -4 90 5 -19 6 -51 10 -70 10 -19 -1 -107 5
-195 13 -88 8 -208 17 -267 21 -60 3 -108 9 -108 13 0 4 -18 12 -40 18 -39 10
-41 9 -55 -16z"/>
<path d="M1970 250 c-25 -35 -19 -50 20 -50 16 0 32 -4 35 -10 4 -6 -18 -8
-57 -4 -49 3 -59 2 -45 -7 10 -6 24 -9 30 -6 7 2 21 1 32 -4 15 -6 9 -8 -25
-10 -35 -2 -38 -3 -15 -6 36 -5 58 -23 30 -24 -12 0 -6 -5 15 -12 l35 -11 -40
-6 -40 -6 36 -7 c21 -4 52 -15 70 -25 50 -24 188 -16 148 9 -10 6 -4 9 18 9
35 0 53 -16 26 -23 -14 -4 -13 -5 4 -6 12 0 24 5 26 12 4 8 8 9 14 1 14 -19
74 -25 296 -30 157 -3 217 -1 217 8 0 8 48 10 173 6 165 -4 169 -4 92 8 -44 7
-82 13 -84 13 -2 1 2 8 9 16 17 21 4 32 -20 17 -25 -15 -50 -16 -50 -1 0 8 -4
8 -12 1 -15 -11 -126 -6 -143 7 -5 5 -19 11 -30 14 -11 2 45 5 124 6 249 2
149 10 -186 15 -177 2 -327 7 -332 11 -20 12 -140 22 -144 11 -2 -5 -16 -1
-33 11 -33 23 -164 103 -169 103 -2 0 -13 -13 -25 -30z m564 -114 c94 0 159
-2 143 -4 -15 -2 -25 -8 -22 -13 7 -10 -39 -10 -167 -1 -47 4 -84 4 -81 0 2
-5 -3 -8 -12 -8 -9 0 -14 3 -11 8 2 4 -13 6 -35 4 -21 -2 -47 -1 -57 3 -16 7
-15 8 3 15 11 5 31 6 44 3 12 -3 100 -6 195 -7z m-121 -42 c26 -4 50 -11 53
-15 3 -5 16 -9 30 -9 13 0 24 -5 24 -11 0 -15 -171 -3 -181 12 -3 6 -17 9 -30
7 -16 -2 -25 2 -27 15 -4 20 -9 20 131 1z m-180 -1 c-7 -2 -19 -2 -25 0 -7 3
-2 5 12 5 14 0 19 -2 13 -5z m285 0 c-10 -2 -26 -2 -35 0 -10 3 -2 5 17 5 19
0 27 -2 18 -5z m116 -30 c-20 -15 -34 -17 -34 -5 0 14 11 21 32 19 18 -1 18
-2 2 -14z m-70 -8 c4 -13 2 -14 -14 -5 -23 13 -26 20 -6 20 8 0 16 -7 20 -15z"/>
<path d="M2443 273 c9 -2 25 -2 35 0 9 3 1 5 -18 5 -19 0 -27 -2 -17 -5z"/>
<path d="M3378 263 c7 -3 16 -2 19 1 4 3 -2 6 -13 5 -11 0 -14 -3 -6 -6z"/>
<path d="M2668 253 c12 -2 30 -2 40 0 9 3 -1 5 -23 4 -22 0 -30 -2 -17 -4z"/>
<path d="M1900 236 c0 -2 8 -10 18 -17 15 -13 16 -12 3 4 -13 16 -21 21 -21
13z"/>
<path d="M2215 210 c-10 -16 -9 -16 65 -9 36 3 51 6 34 7 -17 1 -45 5 -62 8
-18 4 -32 1 -37 -6z"/>
<path d="M2403 213 c9 -2 23 -2 30 0 6 3 -1 5 -18 5 -16 0 -22 -2 -12 -5z"/>
<path d="M3832 200 c0 -14 2 -19 5 -12 2 6 2 18 0 25 -3 6 -5 1 -5 -13z"/>
<path d="M2673 183 c9 -2 25 -2 35 0 9 3 1 5 -18 5 -19 0 -27 -2 -17 -5z"/>
<path d="M3821 154 c0 -11 3 -14 6 -6 3 7 2 16 -1 19 -3 4 -6 -2 -5 -13z"/>
<path d="M3811 114 c0 -11 3 -14 6 -6 3 7 2 16 -1 19 -3 4 -6 -2 -5 -13z"/>
<path d="M3363 93 c20 -5 22 -19 5 -26 -7 -3 12 -5 42 -5 30 0 47 2 37 5 -9 2
-15 9 -11 14 3 5 10 7 15 4 5 -4 9 -1 9 4 0 7 -23 11 -57 10 -32 -1 -50 -3
-40 -6z m54 -19 c-3 -3 -12 -4 -19 -1 -8 3 -5 6 6 6 11 1 17 -2 13 -5z"/>
<path d="M3796 54 c-4 -20 -5 -38 -3 -40 3 -3 8 11 11 32 4 20 5 38 3 40 -3 3
-8 -11 -11 -32z"/>
<path d="M3375 30 c-3 -6 -3 -15 0 -20 8 -13 95 -13 95 1 0 5 -4 8 -8 5 -5 -3
-21 2 -36 10 -33 17 -43 17 -51 4z"/>
<path d="M2785 21 l-30 -8 29 -8 c16 -4 49 -3 75 3 25 5 72 8 105 5 34 -3 56
-1 53 4 -7 11 -190 14 -232 4z"/>
<path d="M3063 3 c9 -2 23 -2 30 0 6 3 -1 5 -18 5 -16 0 -22 -2 -12 -5z"/>
</g>
</svg>
